<svg xmlns="http://www.w3.org/2000/svg" width="32" height="32" viewBox="0 0 32 32">
  <path fill="#f0a33b" stroke="#75461f" stroke-width="2" stroke-linejoin="round"
        d="M7.5 8.5C10 5.7 14.2 4.6 18.1 6.1C22.9 8 25.3 13 23.5 17.3C21.8 21.5 16.7 23.2 12 21.3C7.2 19.4 4.8 12.8 7.5 8.5Z"/>
  <path fill="#ffd27a" opacity="0.7"
        d="M9.3 9.2C11.1 7.4 14 6.8 16.7 7.8C13.8 8 11.3 9.5 9.8 12C9.1 11.1 8.9 10.1 9.3 9.2Z"/>
  <path fill="#f4e2bd" stroke="#80694d" stroke-width="2" stroke-linecap="round" stroke-linejoin="round"
        d="M21.2 18.3L25.8 22.9M25.2 22.2C26.8 21.1 29 22.1 28.8 24C30.2 24.9 29.4 27.4 27.6 27.3C26.9 29 24.4 28.6 24.1 26.9C22.4 26.7 21.8 24.4 23.2 23.4"/>
</svg>
